<?xml version="1.0" encoding="iso-8859-1"?>
<!-- Generator: Adobe Illustrator 19.0.0, SVG Export Plug-In . SVG Version: 6.00 Build 0)  -->
<svg version="1.1" id="Capa_1" xmlns="http://www.w3.org/2000/svg" xmlns:xlink="http://www.w3.org/1999/xlink" x="0px" y="0px"
	 viewBox="0 0 512 512" style="enable-background:new 0 0 512 512;" xml:space="preserve">
<g>
	<g>
		<path d="M432.617,108.473c-66.478-66.476-174.646-66.478-241.124,0c-1.621,1.621-2.412,3.895-2.146,6.171
			c0.266,2.276,1.557,4.308,3.506,5.513c44.595,27.565,85.362,59.443,122.091,95.382l-84.207,84.207l-3.889-3.888
			c-2.929-2.928-7.678-2.928-10.606,0l-38.185,38.184c-1.975,1.976-4.612,3.063-7.424,3.063c-2.812,0-5.449-1.088-7.424-3.063
			c-4.094-4.095-4.095-10.756-0.001-14.85l38.184-38.185c1.407-1.407,2.197-3.314,2.197-5.304s-0.79-3.896-2.197-5.304
			l-18.385-18.384c-2.929-2.928-7.678-2.928-10.606,0L134.218,290.2c-20.079,20.08-20.079,52.752,0,72.833
			c9.717,9.716,22.65,15.066,36.416,15.066c13.766,0,26.698-5.351,36.416-15.066l38.184-38.185c1.407-1.407,2.197-3.314,2.197-5.304
			s-0.79-3.896-2.197-5.304l-3.889-3.889l84.207-84.207c35.939,36.729,67.817,77.496,95.383,122.092
			c1.205,1.95,3.235,3.241,5.512,3.507c0.29,0.033,0.58,0.05,0.868,0.05c1.977,0,3.888-0.782,5.303-2.196
			c32.203-32.203,49.938-75.02,49.938-120.563C482.556,183.493,464.82,140.676,432.617,108.473z M196.444,352.425
			c-6.884,6.883-16.05,10.674-25.81,10.674c-9.76,0-18.926-3.791-25.81-10.673c-14.23-14.232-14.23-37.389,0-51.62l32.88-32.88
			l7.778,7.777l-32.88,32.881c-9.942,9.942-9.942,26.12,0,36.063c4.808,4.808,11.212,7.456,18.031,7.456
			c6.819,0,13.223-2.648,18.031-7.456l32.881-32.881l7.778,7.777L196.444,352.425z M330.079,209.389
			c-16.073-16.021-32.921-31.265-50.524-45.716c7.897-6.872,15.958-13.221,24.069-18.976c3.728-2.645,4.145-8.026,0.913-11.258
			c-0.036-0.036-0.072-0.072-0.108-0.108c-2.559-2.559-6.589-2.902-9.541-0.808c-9.202,6.528-18.322,13.764-27.21,21.62
			c-18.748-14.731-38.307-28.6-58.674-41.563c50.519-44.763,123.425-50.966,180.149-18.607c-9.564,0.383-20.021,2.32-31.172,5.836
			c-7.609,2.399-15.416,5.492-23.321,9.216c-4.635,2.183-5.675,8.33-2.051,11.954c0.037,0.037,0.074,0.074,0.111,0.111
			c2.215,2.215,5.582,2.79,8.417,1.457c7.252-3.408,14.399-6.239,21.354-8.432c26.748-8.433,47.886-6.67,59.52,4.965
			c11.683,11.683,13.412,32.925,4.87,59.815c-8.384,26.391-25.832,55.479-49.465,82.637
			C362.966,243.931,330.385,209.613,330.079,209.389z M428.512,332.089c-12.964-20.368-26.834-39.928-41.566-58.677
			c25.859-29.254,45.029-61.009,54.23-89.976c3.593-11.309,5.562-21.904,5.942-31.584c13.331,23.243,20.437,49.665,20.437,77.181
			C467.556,267.397,453.759,303.636,428.512,332.089z"/>
	</g>
</g>
<g>
	<g>
		<path d="M347.5,308.384c-15.164,0-27.5,12.337-27.5,27.5c0,4.143,3.358,7.5,7.5,7.5c4.142,0,7.5-3.357,7.5-7.5
			c0-6.893,5.607-12.5,12.5-12.5s12.5,5.607,12.5,12.5s-5.607,12.5-12.5,12.5h-90c-4.142,0-7.5,3.357-7.5,7.5s3.358,7.5,7.5,7.5h90
			c15.164,0,27.5-12.337,27.5-27.5C375,320.721,362.664,308.384,347.5,308.384z"/>
	</g>
</g>
<g>
	<g>
		<path d="M191.5,156.384h-100c-4.142,0-7.5,3.357-7.5,7.5s3.358,7.5,7.5,7.5h100c6.893,0,12.5,5.607,12.5,12.5
			s-5.607,12.5-12.5,12.5s-12.5-5.607-12.5-12.5c0-4.143-3.358-7.5-7.5-7.5c-4.142,0-7.5,3.357-7.5,7.5
			c0,15.163,12.336,27.5,27.5,27.5s27.5-12.337,27.5-27.5C219,168.721,206.664,156.384,191.5,156.384z"/>
	</g>
</g>
<g>
	<g>
		<path d="M455.5,398.384h-100c-4.142,0-7.5,3.357-7.5,7.5s3.358,7.5,7.5,7.5h100c6.893,0,12.5,5.607,12.5,12.5
			s-5.607,12.5-12.5,12.5s-12.5-5.607-12.5-12.5c0-4.143-3.358-7.5-7.5-7.5c-4.142,0-7.5,3.357-7.5,7.5
			c0,15.163,12.336,27.5,27.5,27.5s27.5-12.337,27.5-27.5C483,410.721,470.664,398.384,455.5,398.384z"/>
	</g>
</g>
<g>
	<g>
		<path d="M504.5,109.384h-34c-4.142,0-7.5,3.357-7.5,7.5c0,4.143,3.358,7.5,7.5,7.5h34c4.142,0,7.5-3.357,7.5-7.5
			C512,112.741,508.642,109.384,504.5,109.384z"/>
	</g>
</g>
<g>
	<g>
		<path d="M63.5,313.384h-56c-4.142,0-7.5,3.357-7.5,7.5s3.358,7.5,7.5,7.5h56c4.142,0,7.5-3.357,7.5-7.5
			S67.642,313.384,63.5,313.384z"/>
	</g>
</g>
<g>
	<g>
		<path d="M161.5,407.384h-65c-4.142,0-7.5,3.357-7.5,7.5s3.358,7.5,7.5,7.5h65c4.142,0,7.5-3.357,7.5-7.5
			S165.642,407.384,161.5,407.384z"/>
	</g>
</g>
<g>
</g>
<g>
</g>
<g>
</g>
<g>
</g>
<g>
</g>
<g>
</g>
<g>
</g>
<g>
</g>
<g>
</g>
<g>
</g>
<g>
</g>
<g>
</g>
<g>
</g>
<g>
</g>
<g>
</g>
</svg>
