<?xml version="1.0" encoding="iso-8859-1"?>
<!-- Generator: Adobe Illustrator 19.0.0, SVG Export Plug-In . SVG Version: 6.00 Build 0)  -->
<svg version="1.1" id="Capa_1" xmlns="http://www.w3.org/2000/svg" xmlns:xlink="http://www.w3.org/1999/xlink" x="0px" y="0px"
	 viewBox="0 0 512 512" style="enable-background:new 0 0 512 512;" xml:space="preserve">
<g>
	<g>
		<g>
			<path d="M120,183.552l-16-27.712c-10.005,5.785-19.51,12.395-28.416,19.76L96,200.272
				C103.524,194.045,111.551,188.452,120,183.552z"/>
			<path d="M174.624,163.2l-6.032-31.424c-11.356,2.18-22.509,5.306-33.344,9.344l11.2,29.984
				C155.604,167.69,165.028,165.046,174.624,163.2z"/>
			<path d="M448,168c0.026-57.393-46.479-103.941-103.872-103.968c-43.445-0.02-82.318,26.989-97.456,67.712
				c-12.746-2.451-25.693-3.705-38.672-3.744h-4.992l0.8,32H208c68.805,0.051,131.286,40.145,160,102.672
				c-34.002-14.838-73.743-4.352-96,25.328c-26.51-35.346-76.654-42.51-112-16c-6.064,4.548-11.452,9.936-16,16
				c-22.248-29.692-61.991-40.191-96-25.36c6.958-15.158,16.041-29.246,26.976-41.84l-24.192-20.96
				C18.036,237.645,0.007,285.984,0,336h32c0-26.51,21.49-48,48-48s48,21.49,48,48h32c0.084-20.269,12.89-38.3,32-45.056V464
				c0,26.51,21.49,48,48,48c26.51,0,48-21.49,48-48v-32h-32v32c0,8.837-7.163,16-16,16s-16-7.163-16-16V290.944
				c19.11,6.756,31.916,24.787,32,45.056h32c0-26.51,21.49-48,48-48c26.51,0,48,21.49,48,48h32
				c0.023-27.6-5.477-54.926-16.176-80.368C429.844,236.612,448.027,203.538,448,168z M410.517,195.355
				c-5.317,12.823-14.232,23.833-25.669,31.701c-24.861-40.248-62.661-70.855-107.2-86.8c15.215-36.691,57.293-54.1,93.984-38.885
				C408.322,116.586,425.732,158.664,410.517,195.355z"/>
			<rect x="336" width="32" height="32"/>
			<rect x="480" y="144" width="32" height="32"/>
			<rect x="456.014" y="6.051" transform="matrix(0.7071 0.7071 -0.7071 0.7071 166.5303 -322.0501)" width="32" height="67.888"/>
			<rect x="198.059" y="24" transform="matrix(0.7071 0.7071 -0.7071 0.7071 96.2369 -152.3354)" width="67.888" height="32"/>
			<rect x="438.064" y="264" transform="matrix(-0.7071 -0.7071 0.7071 -0.7071 607.7784 811.7511)" width="67.888" height="32"/>
		</g>
	</g>
</g>
<g>
</g>
<g>
</g>
<g>
</g>
<g>
</g>
<g>
</g>
<g>
</g>
<g>
</g>
<g>
</g>
<g>
</g>
<g>
</g>
<g>
</g>
<g>
</g>
<g>
</g>
<g>
</g>
<g>
</g>
</svg>
