<svg width="21" height="21" viewBox="0 0 21 21" fill="none" xmlns="http://www.w3.org/2000/svg">
<path d="M15.3821 2.50442L14.5601 0.443916L12.4996 1.266L13.3216 3.3265L15.3821 2.50442Z" fill="#00DDFF"/>
<path d="M13.3216 3.3265L12.4995 1.26599L10.439 2.08807L11.2611 4.14858L13.3216 3.3265Z" fill="#00DDFF"/>
<path d="M11.2612 4.14859L10.4391 2.08808L8.37858 2.91016L9.20066 4.97067L11.2612 4.14859Z" fill="#00DDFF"/>
<path d="M9.20062 4.97068L8.37854 2.91018L6.31803 3.73226L7.14012 5.79277L9.20062 4.97068Z" fill="#00DDFF"/>
<path d="M7.14008 5.79276L6.31799 3.73225L4.25749 4.55434L5.07957 6.61484L7.14008 5.79276Z" fill="#00DDFF"/>
<path d="M5.07965 6.61483L4.25757 4.55433L2.19706 5.37641L3.01915 7.43692L5.07965 6.61483Z" fill="#00DDFF"/>
<path d="M3.0191 7.43692L2.19702 5.37642L0.136516 6.1985L0.958599 8.25901L3.0191 7.43692Z" fill="#00DDFF"/>
<path d="M16.2042 4.56493L15.3821 2.50443L13.3216 3.32651L14.1437 5.38701L16.2042 4.56493Z" fill="#00DDFF"/>
<path d="M3.84125 9.49743L3.01917 7.43692L0.958659 8.259L1.78074 10.3195L3.84125 9.49743Z" fill="#00DDFF"/>
<path d="M17.0263 6.62543L16.2042 4.56493L14.1437 5.38701L14.9658 7.44751L17.0263 6.62543Z" fill="#00DDFF"/>
<path d="M12.9052 8.2696L12.0831 6.20909L10.0226 7.03117L10.8447 9.09168L12.9052 8.2696Z" fill="#00DDFF"/>
<path d="M10.8447 9.09169L10.0226 7.03118L7.96208 7.85326L8.78416 9.91377L10.8447 9.09169Z" fill="#00DDFF"/>
<path d="M8.78424 9.91376L7.96216 7.85326L5.90165 8.67534L6.72374 10.7358L8.78424 9.91376Z" fill="#00DDFF"/>
<path d="M4.66327 11.5579L3.84119 9.49742L1.78068 10.3195L2.60276 12.38L4.66327 11.5579Z" fill="#00DDFF"/>
<path d="M17.8485 8.68593L17.0264 6.62543L14.9659 7.44751L15.7879 9.50802L17.8485 8.68593Z" fill="#00DDFF"/>
<path d="M13.7274 10.3301L12.9053 8.26959L10.8448 9.09168L11.6669 11.1522L13.7274 10.3301Z" fill="#00DDFF"/>
<path d="M11.6668 11.1522L10.8447 9.09168L8.78422 9.91377L9.6063 11.9743L11.6668 11.1522Z" fill="#00DDFF"/>
<path d="M9.60626 11.9743L8.78418 9.91376L6.72367 10.7358L7.54576 12.7963L9.60626 11.9743Z" fill="#00DDFF"/>
<path d="M5.48529 13.6184L4.66321 11.5579L2.6027 12.38L3.42479 14.4405L5.48529 13.6184Z" fill="#00DDFF"/>
<path d="M18.6705 10.7464L17.8484 8.68593L15.7879 9.50801L16.61 11.5685L18.6705 10.7464Z" fill="#00DDFF"/>
<path d="M14.5495 12.3906L13.7274 10.3301L11.6669 11.1522L12.489 13.2127L14.5495 12.3906Z" fill="#00DDFF"/>
<path d="M12.489 13.2127L11.6669 11.1522L9.60636 11.9743L10.4284 14.0348L12.489 13.2127Z" fill="#00DDFF"/>
<path d="M10.4284 14.0348L9.60632 11.9743L7.54582 12.7963L8.3679 14.8568L10.4284 14.0348Z" fill="#00DDFF"/>
<path d="M6.30743 15.6789L5.48535 13.6184L3.42485 14.4405L4.24693 16.501L6.30743 15.6789Z" fill="#00DDFF"/>
<path d="M19.4925 12.807L18.6704 10.7464L16.6099 11.5685L17.432 13.629L19.4925 12.807Z" fill="#00DDFF"/>
<path d="M7.12946 17.7395L6.30737 15.6789L4.24687 16.501L5.06895 18.5615L7.12946 17.7395Z" fill="#00DDFF"/>
<path d="M20.3146 14.8675L19.4926 12.8069L17.432 13.629L18.2541 15.6895L20.3146 14.8675Z" fill="#00DDFF"/>
<path d="M18.2541 15.6895L17.432 13.629L15.3715 14.4511L16.1936 16.5116L18.2541 15.6895Z" fill="#00DDFF"/>
<path d="M16.1935 16.5116L15.3715 14.4511L13.311 15.2732L14.133 17.3337L16.1935 16.5116Z" fill="#00DDFF"/>
<path d="M14.1331 17.3337L13.311 15.2732L11.2505 16.0953L12.0726 18.1558L14.1331 17.3337Z" fill="#00DDFF"/>
<path d="M12.0726 18.1558L11.2505 16.0953L9.18998 16.9174L10.0121 18.9779L12.0726 18.1558Z" fill="#00DDFF"/>
<path d="M10.0121 18.9779L9.19006 16.9174L7.12956 17.7394L7.95164 19.7999L10.0121 18.9779Z" fill="#00DDFF"/>
<path d="M7.9516 19.8L7.12952 17.7394L5.06901 18.5615L5.89109 20.622L7.9516 19.8Z" fill="#00DDFF"/>
</svg>
