<svg width="59" height="102" viewBox="0 0 59 102" fill="none" xmlns="http://www.w3.org/2000/svg">
<path fill-rule="evenodd" clip-rule="evenodd" d="M48 102L48 -1.31134e-07L51 0L51 102L48 102Z" fill="#00DDFF"/>
<path fill-rule="evenodd" clip-rule="evenodd" d="M29.5 98.9271C44.0953 98.9271 55.9271 87.0953 55.9271 72.5C55.9271 57.9047 44.0953 46.0729 29.5 46.0729C14.9047 46.0729 3.07292 57.9047 3.07292 72.5C3.07292 87.0953 14.9047 98.9271 29.5 98.9271ZM29.5 102C45.7924 102 59 88.7924 59 72.5C59 56.2076 45.7924 43 29.5 43C13.2076 43 0 56.2076 0 72.5C0 88.7924 13.2076 102 29.5 102Z" fill="#00DDFF"/>
</svg>
