<svg width="153" height="126" viewBox="0 0 153 126" fill="none" xmlns="http://www.w3.org/2000/svg">
<path fill-rule="evenodd" clip-rule="evenodd" d="M124.545 125.825L56.5029 27.1334L61.5496 23.6539L129.592 122.346L124.545 125.825Z" fill="#00DDFF"/>
<path fill-rule="evenodd" clip-rule="evenodd" d="M101 98.8596C126.36 98.8596 146.918 78.1037 146.918 52.5C146.918 26.8963 126.36 6.14035 101 6.14035C75.6402 6.14035 55.0819 26.8963 55.0819 52.5C55.0819 78.1037 75.6402 98.8596 101 98.8596ZM101 105C129.719 105 153 81.4949 153 52.5C153 23.5051 129.719 0 101 0C72.2813 0 49.0001 23.5051 49.0001 52.5C49.0001 81.4949 72.2813 105 101 105Z" fill="#00DDFF"/>
<path fill-rule="evenodd" clip-rule="evenodd" d="M-4.37903e-08 99L2.6226e-06 38L3 38L3 99L-4.37903e-08 99Z" fill="#00DDFF"/>
<path fill-rule="evenodd" clip-rule="evenodd" d="M38 105L38 36L41 36L41 105L38 105Z" fill="#00DDFF"/>
<path fill-rule="evenodd" clip-rule="evenodd" d="M15 38H0V35H15V38Z" fill="#00DDFF"/>
<path fill-rule="evenodd" clip-rule="evenodd" d="M37.5001 105.403L1.06612e-05 51.0109L2.52338 49.2712L40.0235 103.663L37.5001 105.403Z" fill="#00DDFF"/>
<path fill-rule="evenodd" clip-rule="evenodd" d="M37.5473 72.6548L12.8851 36.506L15.4169 34.7787L40.0792 70.9275L37.5473 72.6548Z" fill="#00DDFF"/>
</svg>
