<svg xmlns="http://www.w3.org/2000/svg" viewBox="0 0 378 137" width="378" height="137">
	<defs>
		<clipPath clipPathUnits="userSpaceOnUse" id="cp1">
			<path d="M-71 -69L1129 -69L1129 816L-71 816L-71 -69Z" />
		</clipPath>
	</defs>
	<style>
		tspan { white-space:pre }
		.shp0 { fill: #00ddff } 
	</style>
	<g id="Clip-Path" clip-path="url(#cp1)">
		<g id="Layer">
			<g id="Layer">
				<path id="Layer" fill-rule="evenodd" class="shp0" d="M305 76L305 17L308 17L308 76L305 76Z" />
				<path id="Layer" fill-rule="evenodd" class="shp0" d="M332 35L307 35L307 32L332 32L332 35Z" />
				<path id="Layer" fill-rule="evenodd" class="shp0" d="M359 91.63C343.5 115.5 304.68 106.07 305 74L308.07 74.03C307.78 102.8 342.51 111.38 356.44 89.92L359 91.63Z" />
				<path id="Layer" fill-rule="evenodd" class="shp0" d="M290 105L290 46L293 46L293 105L290 105Z" />
				<path id="Layer" fill-rule="evenodd" class="shp0" d="M270 105L270 3L273 3L273 105L270 105Z" />
				<path id="Layer" fill-rule="evenodd" class="shp0" d="M222 75.5C222 59.21 235.21 46 251.5 46C267.79 46 281 59.21 281 75.5C281 91.79 267.79 105 251.5 105C235.21 105 222 91.79 222 75.5ZM251.5 101.93C266.1 101.93 277.93 90.1 277.93 75.5C277.93 60.9 266.1 49.07 251.5 49.07C236.91 49.07 225.07 60.9 225.07 75.5C225.07 90.1 236.91 101.93 251.5 101.93Z" />
				<path id="Layer" fill-rule="evenodd" class="shp0" d="M158 75.5C158 59.21 171.21 46 187.5 46C203.79 46 217 59.21 217 75.5C217 91.79 203.79 105 187.5 105C171.21 105 158 91.79 158 75.5ZM187.5 101.93C202.09 101.93 213.93 90.1 213.93 75.5C213.93 60.9 202.09 49.07 187.5 49.07C172.91 49.07 161.07 60.9 161.07 75.5C161.07 90.1 172.91 101.93 187.5 101.93Z" />
				<path id="Layer" fill-rule="evenodd" class="shp0" d="M127.55 125.83L59.5 27.13L64.55 23.65L132.59 122.35L127.55 125.83Z" />
				<path id="Layer" fill-rule="evenodd" class="shp0" d="M52 52.5C52 23.51 75.28 0 104 0C132.72 0 156 23.51 156 52.5C156 81.49 132.72 105 104 105C75.28 105 52 81.49 52 52.5ZM104 98.86C129.36 98.86 149.92 78.1 149.92 52.5C149.92 26.9 129.36 6.14 104 6.14C78.64 6.14 58.08 26.9 58.08 52.5C58.08 78.1 78.64 98.86 104 98.86Z" />
				<path id="Layer" fill-rule="evenodd" class="shp0" d="M3 99L3 38L6 38L6 99L3 99Z" />
				<path id="Layer" fill-rule="evenodd" class="shp0" d="M41 105L41 36L44 36L44 105L41 105Z" />
				<path id="Layer" fill-rule="evenodd" class="shp0" d="M18 38L3 38L3 35L18 35L18 38Z" />
				<path id="Layer" fill-rule="evenodd" class="shp0" d="M40.5 105.4L3 51.01L5.52 49.27L43.02 103.66L40.5 105.4Z" />
				<path id="Layer" fill-rule="evenodd" class="shp0" d="M40.55 72.65L15.89 36.51L18.42 34.78L43.08 70.93L40.55 72.65Z" />
				<path id="Layer" class="shp0" d="M368.07 53.3L367.25 51.24L365.19 52.06L366.01 54.12L368.07 53.3Z" />
				<path id="Layer" class="shp0" d="M366.01 54.12L365.19 52.06L363.12 52.89L363.95 54.95L366.01 54.12Z" />
				<path id="Layer" class="shp0" d="M363.95 54.95L363.13 52.89L361.06 53.71L361.89 55.77L363.95 54.95Z" />
				<path id="Layer" class="shp0" d="M361.89 55.77L361.06 53.71L359 54.53L359.83 56.59L361.89 55.77Z" />
				<path id="Layer" class="shp0" d="M359.83 56.59L359 54.53L356.94 55.35L357.76 57.41L359.83 56.59Z" />
				<path id="Layer" class="shp0" d="M357.76 57.41L356.94 55.35L354.88 56.17L355.7 58.23L357.76 57.41Z" />
				<path id="Layer" class="shp0" d="M355.7 58.23L354.88 56.17L352.82 57L353.64 59.06L355.7 58.23Z" />
				<path id="Layer" class="shp0" d="M368.89 55.36L368.07 53.3L366.01 54.12L366.83 56.18L368.89 55.36Z" />
				<path id="Layer" class="shp0" d="M356.53 60.3L355.7 58.23L353.64 59.06L354.47 61.12L356.53 60.3Z" />
				<path id="Layer" class="shp0" d="M369.71 57.42L368.89 55.36L366.83 56.18L367.65 58.25L369.71 57.42Z" />
				<path id="Layer" class="shp0" d="M365.59 59.07L364.77 57.01L362.71 57.83L363.53 59.89L365.59 59.07Z" />
				<path id="Layer" class="shp0" d="M363.53 59.89L362.71 57.83L360.65 58.65L361.47 60.71L363.53 59.89Z" />
				<path id="Layer" class="shp0" d="M361.47 60.71L360.65 58.65L358.59 59.47L359.41 61.53L361.47 60.71Z" />
				<path id="Layer" class="shp0" d="M357.35 62.36L356.53 60.3L354.47 61.12L355.29 63.18L357.35 62.36Z" />
				<path id="Layer" class="shp0" d="M370.53 59.48L369.71 57.42L367.65 58.25L368.47 60.31L370.53 59.48Z" />
				<path id="Layer" class="shp0" d="M366.41 61.13L365.59 59.07L363.53 59.89L364.35 61.95L366.41 61.13Z" />
				<path id="Layer" class="shp0" d="M364.35 61.95L363.53 59.89L361.47 60.71L362.29 62.77L364.35 61.95Z" />
				<path id="Layer" class="shp0" d="M362.29 62.77L361.47 60.71L359.41 61.53L360.23 63.59L362.29 62.77Z" />
				<path id="Layer" class="shp0" d="M358.17 64.42L357.35 62.36L355.29 63.18L356.11 65.24L358.17 64.42Z" />
				<path id="Layer" class="shp0" d="M371.36 61.54L370.53 59.48L368.47 60.31L369.3 62.37L371.36 61.54Z" />
				<path id="Layer" class="shp0" d="M367.24 63.19L366.41 61.13L364.35 61.95L365.17 64.01L367.24 63.19Z" />
				<path id="Layer" class="shp0" d="M365.17 64.01L364.35 61.95L362.29 62.77L363.11 64.83L365.17 64.01Z" />
				<path id="Layer" class="shp0" d="M363.11 64.83L362.29 62.77L360.23 63.59L361.05 65.65L363.11 64.83Z" />
				<path id="Layer" class="shp0" d="M358.99 66.48L358.17 64.42L356.11 65.24L356.93 67.3L358.99 66.48Z" />
				<path id="Layer" class="shp0" d="M372.18 63.6L371.36 61.54L369.3 62.37L370.12 64.43L372.18 63.6Z" />
				<path id="Layer" class="shp0" d="M359.81 68.54L358.99 66.48L356.93 67.3L357.75 69.36L359.81 68.54Z" />
				<path id="Layer" class="shp0" d="M373 65.67L372.18 63.6L370.12 64.43L370.94 66.49L373 65.67Z" />
				<path id="Layer" class="shp0" d="M370.94 66.49L370.12 64.43L368.06 65.25L368.88 67.31L370.94 66.49Z" />
				<path id="Layer" class="shp0" d="M368.88 67.31L368.06 65.25L366 66.07L366.82 68.13L368.88 67.31Z" />
				<path id="Layer" class="shp0" d="M366.82 68.13L366 66.07L363.94 66.89L364.76 68.95L366.82 68.13Z" />
				<path id="Layer" class="shp0" d="M364.76 68.95L363.94 66.89L361.88 67.72L362.7 69.78L364.76 68.95Z" />
				<path id="Layer" class="shp0" d="M362.7 69.78L361.88 67.72L359.81 68.54L360.64 70.6L362.7 69.78Z" />
				<path id="Layer" class="shp0" d="M360.64 70.6L359.81 68.54L357.75 69.36L358.58 71.42L360.64 70.6Z" />
				<path id="Layer" class="shp0" d="M347.62 2.06L346.8 0L344.74 0.82L345.56 2.88L347.62 2.06Z" />
				<path id="Layer" class="shp0" d="M345.56 2.88L344.74 0.82L342.68 1.64L343.5 3.7L345.56 2.88Z" />
				<path id="Layer" class="shp0" d="M343.5 3.7L342.68 1.64L340.62 2.47L341.44 4.53L343.5 3.7Z" />
				<path id="Layer" class="shp0" d="M341.44 4.53L340.62 2.47L338.56 3.29L339.38 5.35L341.44 4.53Z" />
				<path id="Layer" class="shp0" d="M339.38 5.35L338.56 3.29L336.5 4.11L337.32 6.17L339.38 5.35Z" />
				<path id="Layer" class="shp0" d="M337.32 6.17L336.5 4.11L334.44 4.93L335.26 6.99L337.32 6.17Z" />
				<path id="Layer" class="shp0" d="M335.26 6.99L334.44 4.93L332.38 5.75L333.2 7.82L335.26 6.99Z" />
				<path id="Layer" class="shp0" d="M348.45 4.12L347.62 2.06L345.56 2.88L346.38 4.94L348.45 4.12Z" />
				<path id="Layer" class="shp0" d="M336.08 9.05L335.26 6.99L333.2 7.82L334.02 9.88L336.08 9.05Z" />
				<path id="Layer" class="shp0" d="M349.27 6.18L348.45 4.12L346.38 4.94L347.21 7L349.27 6.18Z" />
				<path id="Layer" class="shp0" d="M345.15 7.83L344.32 5.77L342.26 6.59L343.09 8.65L345.15 7.83Z" />
				<path id="Layer" class="shp0" d="M343.09 8.65L342.26 6.59L340.2 7.41L341.03 9.47L343.09 8.65Z" />
				<path id="Layer" class="shp0" d="M341.03 9.47L340.2 7.41L338.14 8.23L338.96 10.29L341.03 9.47Z" />
				<path id="Layer" class="shp0" d="M336.9 11.11L336.08 9.05L334.02 9.88L334.84 11.94L336.9 11.11Z" />
				<path id="Layer" class="shp0" d="M350.09 8.24L349.27 6.18L347.21 7L348.03 9.06L350.09 8.24Z" />
				<path id="Layer" class="shp0" d="M345.97 9.89L345.15 7.83L343.09 8.65L343.91 10.71L345.97 9.89Z" />
				<path id="Layer" class="shp0" d="M343.91 10.71L343.09 8.65L341.03 9.47L341.85 11.53L343.91 10.71Z" />
				<path id="Layer" class="shp0" d="M341.85 11.53L341.03 9.47L338.96 10.29L339.79 12.35L341.85 11.53Z" />
				<path id="Layer" class="shp0" d="M337.73 13.17L336.9 11.11L334.84 11.94L335.67 14L337.73 13.17Z" />
				<path id="Layer" class="shp0" d="M350.91 10.3L350.09 8.24L348.03 9.06L348.85 11.12L350.91 10.3Z" />
				<path id="Layer" class="shp0" d="M346.79 11.95L345.97 9.89L343.91 10.71L344.73 12.77L346.79 11.95Z" />
				<path id="Layer" class="shp0" d="M344.73 12.77L343.91 10.71L341.85 11.53L342.67 13.59L344.73 12.77Z" />
				<path id="Layer" class="shp0" d="M342.67 13.59L341.85 11.53L339.79 12.35L340.61 14.41L342.67 13.59Z" />
				<path id="Layer" class="shp0" d="M338.55 15.23L337.73 13.17L335.67 14L336.49 16.06L338.55 15.23Z" />
				<path id="Layer" class="shp0" d="M351.73 12.36L350.91 10.3L348.85 11.12L349.67 13.19L351.73 12.36Z" />
				<path id="Layer" class="shp0" d="M339.37 17.3L338.55 15.23L336.49 16.06L337.31 18.12L339.37 17.3Z" />
				<path id="Layer" class="shp0" d="M352.56 14.42L351.73 12.36L349.67 13.19L350.5 15.25L352.56 14.42Z" />
				<path id="Layer" class="shp0" d="M350.5 15.25L349.67 13.19L347.61 14.01L348.44 16.07L350.5 15.25Z" />
				<path id="Layer" class="shp0" d="M348.44 16.07L347.61 14.01L345.55 14.83L346.38 16.89L348.44 16.07Z" />
				<path id="Layer" class="shp0" d="M346.38 16.89L345.55 14.83L343.49 15.65L344.31 17.71L346.38 16.89Z" />
				<path id="Layer" class="shp0" d="M344.31 17.71L343.49 15.65L341.43 16.47L342.25 18.53L344.31 17.71Z" />
				<path id="Layer" class="shp0" d="M342.25 18.53L341.43 16.47L339.37 17.3L340.19 19.36L342.25 18.53Z" />
				<path id="Layer" class="shp0" d="M340.19 19.36L339.37 17.3L337.31 18.12L338.13 20.18L340.19 19.36Z" />
				<path id="Layer" class="shp0" d="M296.38 22.5L295.56 20.44L293.5 21.27L294.32 23.33L296.38 22.5Z" />
				<path id="Layer" class="shp0" d="M294.32 23.33L293.5 21.27L291.44 22.09L292.26 24.15L294.32 23.33Z" />
				<path id="Layer" class="shp0" d="M292.26 24.15L291.44 22.09L289.38 22.91L290.2 24.97L292.26 24.15Z" />
				<path id="Layer" class="shp0" d="M290.2 24.97L289.38 22.91L287.32 23.73L288.14 25.79L290.2 24.97Z" />
				<path id="Layer" class="shp0" d="M288.14 25.79L287.32 23.73L285.26 24.55L286.08 26.61L288.14 25.79Z" />
				<path id="Layer" class="shp0" d="M286.08 26.61L285.26 24.55L283.2 25.38L284.02 27.44L286.08 26.61Z" />
				<path id="Layer" class="shp0" d="M284.02 27.44L283.2 25.38L281.14 26.2L281.96 28.26L284.02 27.44Z" />
				<path id="Layer" class="shp0" d="M297.2 24.56L296.38 22.5L294.32 23.33L295.14 25.39L297.2 24.56Z" />
				<path id="Layer" class="shp0" d="M284.84 29.5L284.02 27.44L281.96 28.26L282.78 30.32L284.84 29.5Z" />
				<path id="Layer" class="shp0" d="M298.03 26.63L297.2 24.56L295.14 25.39L295.97 27.45L298.03 26.63Z" />
				<path id="Layer" class="shp0" d="M293.9 28.27L293.08 26.21L291.02 27.03L291.85 29.09L293.9 28.27Z" />
				<path id="Layer" class="shp0" d="M291.85 29.09L291.02 27.03L288.96 27.85L289.78 29.91L291.85 29.09Z" />
				<path id="Layer" class="shp0" d="M289.78 29.91L288.96 27.85L286.9 28.68L287.72 30.74L289.78 29.91Z" />
				<path id="Layer" class="shp0" d="M285.66 31.56L284.84 29.5L282.78 30.32L283.6 32.38L285.66 31.56Z" />
				<path id="Layer" class="shp0" d="M298.85 28.69L298.03 26.63L295.97 27.45L296.79 29.51L298.85 28.69Z" />
				<path id="Layer" class="shp0" d="M294.73 30.33L293.9 28.27L291.85 29.09L292.67 31.15L294.73 30.33Z" />
				<path id="Layer" class="shp0" d="M292.67 31.15L291.85 29.09L289.78 29.91L290.61 31.97L292.67 31.15Z" />
				<path id="Layer" class="shp0" d="M290.61 31.97L289.78 29.91L287.72 30.74L288.55 32.8L290.61 31.97Z" />
				<path id="Layer" class="shp0" d="M286.49 33.62L285.66 31.56L283.6 32.38L284.43 34.44L286.49 33.62Z" />
				<path id="Layer" class="shp0" d="M299.67 30.75L298.85 28.69L296.79 29.51L297.61 31.57L299.67 30.75Z" />
				<path id="Layer" class="shp0" d="M295.55 32.39L294.73 30.33L292.67 31.15L293.49 33.21L295.55 32.39Z" />
				<path id="Layer" class="shp0" d="M293.49 33.21L292.67 31.15L290.61 31.97L291.43 34.03L293.49 33.21Z" />
				<path id="Layer" class="shp0" d="M291.43 34.03L290.61 31.97L288.55 32.8L289.37 34.86L291.43 34.03Z" />
				<path id="Layer" class="shp0" d="M287.31 35.68L286.49 33.62L284.43 34.44L285.25 36.5L287.31 35.68Z" />
				<path id="Layer" class="shp0" d="M300.49 32.81L299.67 30.75L297.61 31.57L298.43 33.63L300.49 32.81Z" />
				<path id="Layer" class="shp0" d="M288.13 37.74L287.31 35.68L285.25 36.5L286.07 38.56L288.13 37.74Z" />
				<path id="Layer" class="shp0" d="M301.31 34.87L300.49 32.81L298.43 33.63L299.25 35.69L301.31 34.87Z" />
				<path id="Layer" class="shp0" d="M299.25 35.69L298.43 33.63L296.37 34.45L297.19 36.51L299.25 35.69Z" />
				<path id="Layer" class="shp0" d="M297.19 36.51L296.37 34.45L294.31 35.27L295.13 37.33L297.19 36.51Z" />
				<path id="Layer" class="shp0" d="M295.13 37.33L294.31 35.27L292.25 36.1L293.07 38.16L295.13 37.33Z" />
				<path id="Layer" class="shp0" d="M293.07 38.16L292.25 36.1L290.19 36.92L291.01 38.98L293.07 38.16Z" />
				<path id="Layer" class="shp0" d="M291.01 38.98L290.19 36.92L288.13 37.74L288.95 39.8L291.01 38.98Z" />
				<path id="Layer" class="shp0" d="M288.95 39.8L288.13 37.74L286.07 38.56L286.89 40.62L288.95 39.8Z" />
				<path id="Layer" class="shp0" d="M157 114.12L157.81 114.12L161.62 123.48L161.62 114.12L162.6 114.12L162.6 126.17L161.8 126.17L157.97 116.71L157.97 126.17L157 126.17L157 114.12Z" />
				<path id="Layer" fill-rule="evenodd" class="shp0" d="M168.51 126.31C167.96 126.31 167.51 126.2 167.18 125.98C166.85 125.76 166.6 125.41 166.44 124.92C166.28 124.44 166.21 123.78 166.21 122.94L166.21 120.77C166.21 119.93 166.28 119.27 166.44 118.79C166.61 118.31 166.86 117.96 167.19 117.75C167.54 117.54 167.98 117.44 168.52 117.44C169.12 117.44 169.57 117.57 169.88 117.82C170.21 118.07 170.43 118.45 170.55 118.95C170.68 119.46 170.74 120.14 170.74 120.99L170.74 121.77L167.28 121.77L167.28 123.27C167.28 124.09 167.38 124.67 167.56 125C167.75 125.32 168.07 125.49 168.51 125.49C168.88 125.49 169.17 125.37 169.37 125.13C169.57 124.89 169.68 124.46 169.68 123.84L169.68 123.24L170.72 123.24L170.72 123.72C170.72 124.55 170.55 125.19 170.21 125.64C169.86 126.08 169.3 126.31 168.51 126.31ZM169.68 121.14L169.68 120.43C169.68 119.91 169.65 119.51 169.59 119.21C169.54 118.91 169.43 118.68 169.26 118.51C169.09 118.34 168.84 118.26 168.51 118.26C168.2 118.26 167.96 118.33 167.79 118.46C167.61 118.59 167.48 118.83 167.4 119.16C167.32 119.49 167.28 119.96 167.28 120.56L167.28 121.14L169.68 121.14Z" />
				<path id="Layer" class="shp0" d="M175.49 121.68L173.57 117.57L174.63 117.57L176.09 120.73L177.5 117.57L178.59 117.57L176.59 121.8L178.62 126.17L177.58 126.17L175.99 122.8L174.5 126.17L173.47 126.17L175.49 121.68Z" />
				<path id="Layer" class="shp0" d="M183.61 126.28C183.03 126.28 182.62 126.12 182.4 125.8C182.18 125.47 182.07 125 182.07 124.39L182.07 118.29L181.02 118.29L181.02 117.57L182.07 117.57L182.07 114.91L183.15 114.91L183.15 117.57L184.57 117.57L184.57 118.29L183.15 118.29L183.15 124.28C183.15 124.72 183.2 125.02 183.3 125.19C183.39 125.35 183.6 125.43 183.9 125.43C184.09 125.43 184.29 125.4 184.52 125.35L184.52 126.19C184.22 126.25 183.91 126.28 183.61 126.28Z" />
				<path id="Layer" class="shp0" d="M195.5 126.34C194.42 126.34 193.66 126.01 193.21 125.35C192.77 124.69 192.54 123.74 192.54 122.5L192.54 117.8C192.54 116.55 192.77 115.6 193.21 114.97C193.65 114.32 194.44 114 195.57 114C196.6 114 197.34 114.29 197.78 114.88C198.24 115.45 198.47 116.32 198.47 117.47L198.47 117.88L197.4 117.88L197.4 117.47C197.4 116.56 197.27 115.92 197.02 115.52C196.76 115.11 196.28 114.91 195.59 114.91C195.06 114.91 194.66 115.02 194.38 115.25C194.1 115.48 193.91 115.79 193.81 116.19C193.72 116.57 193.68 117.07 193.68 117.68L193.68 122.63C193.68 123.57 193.81 124.27 194.08 124.73C194.35 125.19 194.86 125.41 195.6 125.41C196.3 125.41 196.79 125.19 197.06 124.73C197.34 124.26 197.47 123.55 197.47 122.6L197.47 121.19L195.7 121.19L195.7 120.34L198.51 120.34L198.51 126.17L197.78 126.17L197.65 124.8C197.49 125.29 197.23 125.67 196.88 125.94C196.54 126.2 196.08 126.34 195.5 126.34Z" />
				<path id="Layer" fill-rule="evenodd" class="shp0" d="M204.29 126.31C203.74 126.31 203.3 126.2 202.96 125.98C202.63 125.76 202.38 125.41 202.22 124.92C202.07 124.44 201.99 123.78 201.99 122.94L201.99 120.77C201.99 119.93 202.07 119.27 202.22 118.79C202.39 118.31 202.64 117.96 202.98 117.75C203.32 117.54 203.76 117.44 204.31 117.44C204.9 117.44 205.35 117.57 205.66 117.82C205.99 118.07 206.21 118.45 206.33 118.95C206.46 119.46 206.52 120.14 206.52 120.99L206.52 121.77L203.06 121.77L203.06 123.27C203.06 124.09 203.16 124.67 203.34 125C203.53 125.32 203.85 125.49 204.29 125.49C204.66 125.49 204.95 125.37 205.15 125.13C205.35 124.89 205.46 124.46 205.46 123.84L205.46 123.24L206.5 123.24L206.5 123.72C206.5 124.55 206.33 125.19 205.99 125.64C205.64 126.08 205.08 126.31 204.29 126.31ZM205.46 121.14L205.46 120.43C205.46 119.91 205.43 119.51 205.37 119.21C205.32 118.91 205.21 118.68 205.04 118.51C204.88 118.34 204.63 118.26 204.29 118.26C203.99 118.26 203.74 118.33 203.57 118.46C203.39 118.59 203.26 118.83 203.18 119.16C203.1 119.49 203.06 119.96 203.06 120.56L203.06 121.14L205.46 121.14Z" />
				<path id="Layer" class="shp0" d="M209.89 117.57L210.97 117.57L210.97 118.46C211.26 118.15 211.57 117.9 211.92 117.72C212.27 117.53 212.64 117.44 213.02 117.44C213.45 117.44 213.77 117.6 214 117.91C214.22 118.23 214.34 118.68 214.34 119.27L214.34 126.17L213.26 126.17L213.26 119.51C213.26 119.07 213.19 118.76 213.05 118.57C212.93 118.38 212.72 118.29 212.45 118.29C212.21 118.29 211.97 118.36 211.71 118.51C211.45 118.65 211.21 118.84 210.97 119.09L210.97 126.17L209.89 126.17L209.89 117.57Z" />
				<path id="Layer" fill-rule="evenodd" class="shp0" d="M220 126.31C219.44 126.31 219 126.2 218.67 125.98C218.33 125.76 218.09 125.41 217.93 124.92C217.77 124.44 217.69 123.78 217.69 122.94L217.69 120.77C217.69 119.93 217.77 119.27 217.93 118.79C218.09 118.31 218.35 117.96 218.68 117.75C219.03 117.54 219.47 117.44 220.01 117.44C220.6 117.44 221.05 117.57 221.37 117.82C221.69 118.07 221.91 118.45 222.03 118.95C222.16 119.46 222.22 120.14 222.22 120.99L222.22 121.77L218.77 121.77L218.77 123.27C218.77 124.09 218.86 124.67 219.05 125C219.24 125.32 219.55 125.49 220 125.49C220.37 125.49 220.66 125.37 220.85 125.13C221.06 124.89 221.16 124.46 221.16 123.84L221.16 123.24L222.21 123.24L222.21 123.72C222.21 124.55 222.04 125.19 221.69 125.64C221.35 126.08 220.78 126.31 220 126.31ZM221.16 121.14L221.16 120.43C221.16 119.91 221.13 119.51 221.07 119.21C221.02 118.91 220.91 118.68 220.75 118.51C220.58 118.34 220.33 118.26 220 118.26C219.69 118.26 219.45 118.33 219.27 118.46C219.09 118.59 218.97 118.83 218.89 119.16C218.81 119.49 218.77 119.96 218.77 120.56L218.77 121.14L221.16 121.14Z" />
				<path id="Layer" class="shp0" d="M225.67 117.57L226.76 117.57L226.76 118.75C227.02 118.32 227.32 118 227.67 117.8C228.02 117.59 228.37 117.48 228.73 117.48C228.8 117.48 228.86 117.49 228.92 117.5L228.92 118.66C228.74 118.6 228.57 118.57 228.39 118.57C227.71 118.57 227.17 118.9 226.76 119.56L226.76 126.17L225.67 126.17L225.67 117.57Z" />
				<path id="Layer" fill-rule="evenodd" class="shp0" d="M233.33 126.31C232.82 126.31 232.41 126.12 232.09 125.76C231.78 125.39 231.62 124.93 231.62 124.39C231.62 123.82 231.73 123.36 231.95 122.99C232.17 122.62 232.52 122.29 232.98 122.01C233.44 121.72 234.14 121.37 235.06 120.95L235.06 120.34C235.06 119.8 235.03 119.39 234.96 119.09C234.9 118.79 234.79 118.58 234.63 118.45C234.49 118.32 234.27 118.26 234 118.26C233.2 118.26 232.8 118.75 232.8 119.73L232.8 120.03L231.74 120.01C231.75 119.13 231.94 118.48 232.3 118.06C232.66 117.65 233.25 117.44 234.06 117.44C234.81 117.44 235.34 117.67 235.65 118.12C235.98 118.58 236.14 119.3 236.14 120.28L236.14 124.46C236.14 124.74 236.15 125.06 236.15 125.41C236.17 125.77 236.19 126.02 236.21 126.17L235.25 126.17L235.09 124.98C234.96 125.36 234.74 125.68 234.43 125.94C234.12 126.18 233.76 126.31 233.33 126.31ZM233.67 125.38C233.97 125.38 234.24 125.28 234.47 125.09C234.72 124.88 234.91 124.64 235.06 124.36L235.06 121.68C234.39 122.04 233.91 122.31 233.6 122.51C233.31 122.71 233.08 122.93 232.92 123.18C232.77 123.42 232.7 123.73 232.7 124.12C232.7 124.55 232.79 124.86 232.97 125.07C233.15 125.28 233.39 125.38 233.67 125.38Z" />
				<path id="Layer" class="shp0" d="M241.61 126.28C241.03 126.28 240.63 126.12 240.4 125.8C240.18 125.47 240.07 125 240.07 124.39L240.07 118.29L239.03 118.29L239.03 117.57L240.07 117.57L240.07 114.91L241.15 114.91L241.15 117.57L242.57 117.57L242.57 118.29L241.15 118.29L241.15 124.28C241.15 124.72 241.2 125.02 241.3 125.19C241.4 125.35 241.6 125.43 241.91 125.43C242.09 125.43 242.3 125.4 242.53 125.35L242.53 126.19C242.22 126.25 241.92 126.28 241.61 126.28Z" />
				<path id="Layer" class="shp0" d="M245.76 114.91L246.84 114.91L246.84 116.38L245.76 116.38L245.76 114.91ZM245.76 117.57L246.84 117.57L246.84 126.17L245.76 126.17L245.76 117.57Z" />
				<path id="Layer" fill-rule="evenodd" class="shp0" d="M252.69 126.31C251.84 126.31 251.25 126.04 250.92 125.52C250.58 124.98 250.42 124.16 250.42 123.06L250.42 120.68C250.42 119.58 250.58 118.77 250.92 118.24C251.25 117.7 251.84 117.44 252.69 117.44C253.55 117.44 254.14 117.7 254.48 118.24C254.81 118.77 254.98 119.58 254.98 120.68L254.98 123.06C254.98 124.16 254.81 124.98 254.48 125.52C254.14 126.04 253.55 126.31 252.69 126.31ZM252.69 125.49C253.04 125.49 253.31 125.39 253.47 125.2C253.65 125.02 253.76 124.76 253.81 124.45C253.86 124.12 253.88 123.68 253.88 123.12L253.88 120.62C253.88 120.07 253.86 119.63 253.81 119.31C253.76 118.98 253.65 118.73 253.47 118.54C253.31 118.35 253.04 118.26 252.69 118.26C252.34 118.26 252.07 118.35 251.91 118.54C251.74 118.73 251.63 118.98 251.58 119.31C251.53 119.63 251.51 120.07 251.51 120.62L251.51 123.12C251.51 123.68 251.53 124.12 251.58 124.45C251.63 124.76 251.74 125.02 251.91 125.2C252.07 125.39 252.34 125.49 252.69 125.49Z" />
				<path id="Layer" class="shp0" d="M258.39 117.57L259.47 117.57L259.47 118.46C259.76 118.15 260.07 117.9 260.42 117.72C260.77 117.53 261.14 117.44 261.52 117.44C261.95 117.44 262.27 117.6 262.5 117.91C262.73 118.23 262.84 118.68 262.84 119.27L262.84 126.17L261.76 126.17L261.76 119.51C261.76 119.07 261.69 118.76 261.55 118.57C261.43 118.38 261.23 118.29 260.95 118.29C260.71 118.29 260.47 118.36 260.21 118.51C259.95 118.65 259.71 118.84 259.47 119.09L259.47 126.17L258.39 126.17L258.39 117.57Z" />
				<path id="Layer" fill-rule="evenodd" class="shp0" d="M274.34 126.32C273.22 126.32 272.43 126 271.95 125.35C271.49 124.71 271.26 123.8 271.26 122.62L271.26 117.62C271.26 116.44 271.5 115.55 271.97 114.94C272.44 114.31 273.23 114 274.34 114C275.44 114 276.22 114.31 276.69 114.94C277.17 115.56 277.4 116.45 277.4 117.62L277.4 122.63C277.4 123.81 277.17 124.72 276.71 125.37C276.24 126 275.46 126.32 274.34 126.32ZM274.34 125.41C275.07 125.41 275.57 125.2 275.85 124.77C276.13 124.34 276.26 123.7 276.26 122.87L276.26 117.41C276.26 116.57 276.13 115.95 275.85 115.53C275.58 115.12 275.08 114.91 274.34 114.91C273.6 114.91 273.08 115.12 272.81 115.53C272.53 115.94 272.4 116.56 272.4 117.41L272.4 122.87C272.4 123.71 272.53 124.35 272.81 124.77C273.08 125.2 273.6 125.41 274.34 125.41Z" />
				<path id="Layer" class="shp0" d="M281.04 117.57L282.13 117.57L282.13 118.75C282.39 118.32 282.69 118 283.03 117.8C283.39 117.59 283.74 117.48 284.1 117.48C284.16 117.48 284.23 117.49 284.29 117.5L284.29 118.66C284.11 118.6 283.93 118.57 283.75 118.57C283.08 118.57 282.54 118.9 282.13 119.56L282.13 126.17L281.04 126.17L281.04 117.57Z" />
				<path id="Layer" fill-rule="evenodd" class="shp0" d="M289.39 129C288.52 129 287.84 128.87 287.36 128.61C286.88 128.35 286.65 127.96 286.65 127.44C286.65 127.04 286.78 126.68 287.05 126.35C287.32 126.02 287.66 125.76 288.05 125.56C287.42 125.39 287.11 125.08 287.11 124.63C287.11 124.35 287.19 124.09 287.34 123.87C287.51 123.63 287.77 123.36 288.13 123.06C287.75 122.78 287.48 122.43 287.3 122.01C287.13 121.57 287.05 121.05 287.05 120.44C287.05 119.57 287.25 118.85 287.65 118.29C288.06 117.72 288.65 117.44 289.44 117.44C290.31 117.44 290.92 117.8 291.27 118.51C291.36 118.35 291.51 118.18 291.73 117.99C291.95 117.79 292.19 117.64 292.42 117.54L292.64 117.47L292.94 118.23C292.7 118.27 292.44 118.36 292.14 118.52C291.86 118.68 291.65 118.83 291.54 118.97C291.6 119.16 291.66 119.41 291.71 119.71C291.77 120.01 291.8 120.27 291.8 120.47C291.8 121.4 291.61 122.13 291.24 122.68C290.87 123.21 290.27 123.48 289.45 123.48C289.31 123.48 289.15 123.47 288.98 123.45C288.82 123.42 288.69 123.39 288.58 123.34C288.2 123.73 288.01 124.06 288.01 124.33C288.01 124.47 288.06 124.58 288.17 124.66C288.29 124.72 288.47 124.77 288.71 124.8L290.07 125.01C290.78 125.12 291.31 125.34 291.67 125.67C292.03 125.98 292.21 126.43 292.21 127.01C292.21 127.67 291.96 128.17 291.45 128.49C290.94 128.83 290.26 129 289.39 129ZM289.45 122.69C290.01 122.69 290.39 122.48 290.58 122.06C290.76 121.65 290.86 121.11 290.86 120.44C290.86 118.95 290.39 118.21 289.45 118.21C288.91 118.21 288.54 118.43 288.33 118.87C288.13 119.3 288.02 119.83 288.02 120.44C288.02 121.94 288.5 122.69 289.45 122.69ZM289.44 128.12C290.04 128.12 290.51 128.03 290.84 127.85C291.19 127.68 291.36 127.4 291.36 127.02C291.36 126.7 291.25 126.45 291.02 126.28C290.8 126.1 290.38 125.96 289.75 125.86L288.66 125.71C288.33 125.95 288.07 126.18 287.86 126.4C287.66 126.62 287.56 126.88 287.56 127.17C287.56 127.5 287.72 127.73 288.02 127.88C288.33 128.04 288.8 128.12 289.44 128.12Z" />
				<path id="Layer" fill-rule="evenodd" class="shp0" d="M296.98 126.31C296.47 126.31 296.05 126.12 295.74 125.76C295.42 125.39 295.27 124.93 295.27 124.39C295.27 123.82 295.37 123.36 295.59 122.99C295.82 122.62 296.16 122.29 296.62 122.01C297.09 121.72 297.78 121.37 298.71 120.95L298.71 120.34C298.71 119.8 298.67 119.39 298.6 119.09C298.54 118.79 298.44 118.58 298.28 118.45C298.13 118.32 297.92 118.26 297.64 118.26C296.85 118.26 296.45 118.75 296.45 119.73L296.45 120.03L295.38 120.01C295.39 119.13 295.58 118.48 295.94 118.06C296.31 117.65 296.89 117.44 297.7 117.44C298.45 117.44 298.98 117.67 299.3 118.12C299.62 118.58 299.78 119.3 299.78 120.28L299.78 124.46C299.78 124.74 299.79 125.06 299.8 125.41C299.82 125.77 299.84 126.02 299.86 126.17L298.9 126.17L298.74 124.98C298.61 125.36 298.39 125.68 298.07 125.94C297.77 126.18 297.4 126.31 296.98 126.31ZM297.32 125.38C297.61 125.38 297.88 125.28 298.12 125.09C298.36 124.88 298.56 124.64 298.71 124.36L298.71 121.68C298.04 122.04 297.55 122.31 297.24 122.51C296.95 122.71 296.72 122.93 296.56 123.18C296.42 123.42 296.34 123.73 296.34 124.12C296.34 124.55 296.43 124.86 296.61 125.07C296.8 125.28 297.03 125.38 297.32 125.38Z" />
				<path id="Layer" class="shp0" d="M303.29 117.57L304.37 117.57L304.37 118.46C304.65 118.15 304.97 117.9 305.31 117.72C305.67 117.53 306.04 117.44 306.42 117.44C306.84 117.44 307.17 117.6 307.39 117.91C307.62 118.23 307.73 118.68 307.73 119.27L307.73 126.17L306.66 126.17L306.66 119.51C306.66 119.07 306.59 118.76 306.45 118.57C306.32 118.38 306.12 118.29 305.84 118.29C305.61 118.29 305.36 118.36 305.11 118.51C304.85 118.65 304.6 118.84 304.37 119.09L304.37 126.17L303.29 126.17L303.29 117.57Z" />
				<path id="Layer" class="shp0" d="M311.37 114.91L312.45 114.91L312.45 116.38L311.37 116.38L311.37 114.91ZM311.37 117.57L312.45 117.57L312.45 126.17L311.37 126.17L311.37 117.57Z" />
				<path id="Layer" class="shp0" d="M315.83 125.41L318.74 118.41L316.14 118.41L316.14 117.57L319.87 117.57L319.87 118.23L316.98 125.34L319.83 125.34L319.83 126.17L315.83 126.17L315.83 125.41Z" />
				<path id="Layer" fill-rule="evenodd" class="shp0" d="M324.5 126.31C323.98 126.31 323.57 126.12 323.25 125.76C322.94 125.39 322.78 124.93 322.78 124.39C322.78 123.82 322.89 123.36 323.11 122.99C323.33 122.62 323.68 122.29 324.14 122.01C324.6 121.72 325.3 121.37 326.22 120.95L326.22 120.34C326.22 119.8 326.19 119.39 326.12 119.09C326.06 118.79 325.95 118.58 325.8 118.45C325.65 118.32 325.44 118.26 325.16 118.26C324.36 118.26 323.96 118.75 323.96 119.73L323.96 120.03L322.9 120.01C322.91 119.13 323.1 118.48 323.46 118.06C323.83 117.65 324.41 117.44 325.22 117.44C325.97 117.44 326.5 117.67 326.81 118.12C327.14 118.58 327.3 119.3 327.3 120.28L327.3 124.46C327.3 124.74 327.31 125.06 327.32 125.41C327.33 125.77 327.36 126.02 327.38 126.17L326.42 126.17L326.25 124.98C326.13 125.36 325.9 125.68 325.59 125.94C325.28 126.18 324.92 126.31 324.5 126.31ZM324.83 125.38C325.13 125.38 325.4 125.28 325.63 125.09C325.88 124.88 326.07 124.64 326.22 124.36L326.22 121.68C325.55 122.04 325.07 122.31 324.76 122.51C324.47 122.71 324.24 122.93 324.08 123.18C323.94 123.42 323.86 123.73 323.86 124.12C323.86 124.55 323.95 124.86 324.13 125.07C324.31 125.28 324.55 125.38 324.83 125.38Z" />
				<path id="Layer" class="shp0" d="M332.77 126.28C332.19 126.28 331.79 126.12 331.56 125.8C331.35 125.47 331.24 125 331.24 124.39L331.24 118.29L330.19 118.29L330.19 117.57L331.24 117.57L331.24 114.91L332.31 114.91L332.31 117.57L333.73 117.57L333.73 118.29L332.31 118.29L332.31 124.28C332.31 124.72 332.36 125.02 332.46 125.19C332.56 125.35 332.76 125.43 333.07 125.43C333.25 125.43 333.46 125.4 333.69 125.35L333.69 126.19C333.38 126.25 333.08 126.28 332.77 126.28Z" />
				<path id="Layer" class="shp0" d="M336.93 114.91L338 114.91L338 116.38L336.93 116.38L336.93 114.91ZM336.93 117.57L338 117.57L338 126.17L336.93 126.17L336.93 117.57Z" />
				<path id="Layer" fill-rule="evenodd" class="shp0" d="M343.85 126.31C343 126.31 342.41 126.04 342.08 125.52C341.74 124.98 341.58 124.16 341.58 123.06L341.58 120.68C341.58 119.58 341.74 118.77 342.08 118.24C342.41 117.7 343 117.44 343.85 117.44C344.71 117.44 345.3 117.7 345.64 118.24C345.97 118.77 346.14 119.58 346.14 120.68L346.14 123.06C346.14 124.16 345.97 124.98 345.64 125.52C345.3 126.04 344.71 126.31 343.85 126.31ZM343.85 125.49C344.2 125.49 344.47 125.39 344.63 125.2C344.81 125.02 344.92 124.76 344.97 124.45C345.02 124.12 345.05 123.68 345.05 123.12L345.05 120.62C345.05 120.07 345.02 119.63 344.97 119.31C344.92 118.98 344.81 118.73 344.63 118.54C344.47 118.35 344.2 118.26 343.85 118.26C343.5 118.26 343.24 118.35 343.07 118.54C342.9 118.73 342.79 118.98 342.74 119.31C342.69 119.63 342.67 120.07 342.67 120.62L342.67 123.12C342.67 123.68 342.69 124.12 342.74 124.45C342.79 124.76 342.9 125.02 343.07 125.2C343.24 125.39 343.5 125.49 343.85 125.49Z" />
				<path id="Layer" class="shp0" d="M349.56 117.57L350.63 117.57L350.63 118.46C350.92 118.15 351.23 117.9 351.58 117.72C351.93 117.53 352.3 117.44 352.69 117.44C353.11 117.44 353.43 117.6 353.66 117.91C353.89 118.23 354 118.68 354 119.27L354 126.17L352.92 126.17L352.92 119.51C352.92 119.07 352.85 118.76 352.71 118.57C352.59 118.38 352.39 118.29 352.11 118.29C351.87 118.29 351.63 118.36 351.37 118.51C351.12 118.65 350.87 118.84 350.63 119.09L350.63 126.17L349.56 126.17L349.56 117.57Z" />
			</g>
		</g>
	</g>
</svg>