<svg width="197" height="15" viewBox="0 0 197 15" fill="none" xmlns="http://www.w3.org/2000/svg">
<path d="M0 0.119047H0.812044L4.62127 9.47917V0.119047H5.59572V12.1726H4.79844L0.974453 2.70833V12.1726H0V0.119047Z" fill="#00DDFF"/>
<path d="M11.5093 12.3065C10.9581 12.3065 10.5152 12.1974 10.1805 11.9792C9.84588 11.7609 9.5998 11.4087 9.44232 10.9226C9.28483 10.4365 9.20609 9.77678 9.20609 8.94345V6.77083C9.20609 5.92758 9.28483 5.26786 9.44232 4.79167C9.60965 4.30555 9.86064 3.95833 10.1953 3.75C10.5398 3.54167 10.9827 3.4375 11.5241 3.4375C12.1147 3.4375 12.5675 3.56647 12.8824 3.8244C13.2072 4.07242 13.4287 4.4494 13.5468 4.95536C13.6748 5.46131 13.7388 6.14087 13.7388 6.99405V7.76786H10.2839V9.27083C10.2839 10.0942 10.3774 10.6696 10.5644 10.997C10.7514 11.3244 11.0664 11.4881 11.5093 11.4881C11.8834 11.4881 12.1688 11.369 12.3657 11.131C12.5724 10.8929 12.6757 10.4613 12.6757 9.83631V9.24107H13.724V9.71726C13.724 10.5506 13.5518 11.1905 13.2072 11.6369C12.8627 12.0833 12.2968 12.3065 11.5093 12.3065ZM12.6757 7.14286V6.42857C12.6757 5.9127 12.6462 5.50595 12.5871 5.20833C12.5379 4.91071 12.4297 4.67758 12.2623 4.50893C12.095 4.34028 11.844 4.25595 11.5093 4.25595C11.2042 4.25595 10.9631 4.3254 10.7859 4.46429C10.6087 4.59325 10.4807 4.82639 10.402 5.16369C10.3233 5.49107 10.2839 5.95734 10.2839 6.5625V7.14286H12.6757Z" fill="#00DDFF"/>
<path d="M18.4874 7.67857L16.568 3.57143H17.631L19.0927 6.72619L20.4953 3.57143H21.5879L19.5947 7.79762L21.6174 12.1726H20.5839L18.9894 8.79464L17.4982 12.1726H16.4647L18.4874 7.67857Z" fill="#00DDFF"/>
<path d="M26.6061 12.2768C26.0254 12.2768 25.6218 12.1181 25.3954 11.8006C25.1789 11.4732 25.0706 11.002 25.0706 10.3869V4.28571H24.0223V3.57143H25.0706V0.907737H26.1484V3.57143H27.5658V4.28571H26.1484V10.2827C26.1484 10.7192 26.1976 11.0218 26.296 11.1905C26.3945 11.3492 26.5962 11.4286 26.9014 11.4286C27.0884 11.4286 27.2951 11.4038 27.5215 11.3542V12.1875C27.2164 12.247 26.9112 12.2768 26.6061 12.2768Z" fill="#00DDFF"/>
<path d="M38.497 12.3363C37.4241 12.3363 36.6613 12.0089 36.2085 11.3542C35.7656 10.6895 35.5441 9.7371 35.5441 8.49702V3.79464C35.5441 2.54464 35.7656 1.60218 36.2085 0.967261C36.6514 0.32242 37.4389 0 38.5708 0C39.6043 0 40.3425 0.292658 40.7855 0.877975C41.2383 1.45337 41.4646 2.31647 41.4646 3.46726V3.88393H40.4016V3.46726C40.4016 2.56448 40.2736 1.91468 40.0177 1.51786C39.7618 1.11111 39.2844 0.907737 38.5856 0.907737C38.0639 0.907737 37.6603 1.02182 37.3749 1.25C37.0993 1.47817 36.9123 1.79067 36.8139 2.1875C36.7253 2.5744 36.681 3.07044 36.681 3.67559V8.63095C36.681 9.57341 36.8139 10.2728 37.0796 10.7292C37.3552 11.1855 37.8621 11.4137 38.6003 11.4137C39.2992 11.4137 39.7864 11.1855 40.062 10.7292C40.3376 10.2629 40.4754 9.55357 40.4754 8.60119V7.1875H38.7037V6.33928H41.5089V12.1726H40.7855L40.6526 10.8036C40.4853 11.2897 40.2294 11.6667 39.8848 11.9345C39.5403 12.2024 39.0777 12.3363 38.497 12.3363Z" fill="#00DDFF"/>
<path d="M47.29 12.3065C46.7388 12.3065 46.2959 12.1974 45.9612 11.9792C45.6266 11.7609 45.3805 11.4087 45.223 10.9226C45.0655 10.4365 44.9868 9.77678 44.9868 8.94345V6.77083C44.9868 5.92758 45.0655 5.26786 45.223 4.79167C45.3903 4.30555 45.6413 3.95833 45.976 3.75C46.3205 3.54167 46.7634 3.4375 47.3048 3.4375C47.8954 3.4375 48.3481 3.56647 48.6631 3.8244C48.9879 4.07242 49.2094 4.4494 49.3275 4.95536C49.4555 5.46131 49.5195 6.14087 49.5195 6.99405V7.76786H46.0646V9.27083C46.0646 10.0942 46.1581 10.6696 46.3451 10.997C46.5321 11.3244 46.8471 11.4881 47.29 11.4881C47.6641 11.4881 47.9495 11.369 48.1464 11.131C48.3531 10.8929 48.4564 10.4613 48.4564 9.83631V9.24107H49.5047V9.71726C49.5047 10.5506 49.3324 11.1905 48.9879 11.6369C48.6434 12.0833 48.0775 12.3065 47.29 12.3065ZM48.4564 7.14286V6.42857C48.4564 5.9127 48.4269 5.50595 48.3678 5.20833C48.3186 4.91071 48.2103 4.67758 48.043 4.50893C47.8757 4.34028 47.6247 4.25595 47.29 4.25595C46.9849 4.25595 46.7437 4.3254 46.5666 4.46429C46.3894 4.59325 46.2614 4.82639 46.1827 5.16369C46.1039 5.49107 46.0646 5.95734 46.0646 6.5625V7.14286H48.4564Z" fill="#00DDFF"/>
<path d="M52.8936 3.57143H53.9714V4.46429C54.2568 4.14683 54.5718 3.89881 54.9163 3.72024C55.2707 3.53175 55.6398 3.4375 56.0236 3.4375C56.4469 3.4375 56.7717 3.59623 56.9981 3.91369C57.2245 4.23115 57.3377 4.68254 57.3377 5.26786V12.1726H56.2599V5.50595C56.2599 5.06944 56.191 4.75694 56.0532 4.56845C55.9252 4.37996 55.7234 4.28571 55.4478 4.28571C55.2116 4.28571 54.9655 4.36012 54.7096 4.50893C54.4537 4.64782 54.2076 4.84127 53.9714 5.08929V12.1726H52.8936V3.57143Z" fill="#00DDFF"/>
<path d="M62.9951 12.3065C62.4439 12.3065 62.001 12.1974 61.6663 11.9792C61.3317 11.7609 61.0856 11.4087 60.9281 10.9226C60.7706 10.4365 60.6919 9.77678 60.6919 8.94345V6.77083C60.6919 5.92758 60.7706 5.26786 60.9281 4.79167C61.0954 4.30555 61.3464 3.95833 61.6811 3.75C62.0256 3.54167 62.4685 3.4375 63.0099 3.4375C63.6005 3.4375 64.0532 3.56647 64.3682 3.8244C64.693 4.07242 64.9145 4.4494 65.0326 4.95536C65.1606 5.46131 65.2245 6.14087 65.2245 6.99405V7.76786H61.7697V9.27083C61.7697 10.0942 61.8632 10.6696 62.0502 10.997C62.2372 11.3244 62.5522 11.4881 62.9951 11.4881C63.3691 11.4881 63.6546 11.369 63.8515 11.131C64.0582 10.8929 64.1615 10.4613 64.1615 9.83631V9.24107H65.2098V9.71726C65.2098 10.5506 65.0375 11.1905 64.693 11.6369C64.3485 12.0833 63.7825 12.3065 62.9951 12.3065ZM64.1615 7.14286V6.42857C64.1615 5.9127 64.132 5.50595 64.0729 5.20833C64.0237 4.91071 63.9154 4.67758 63.7481 4.50893C63.5808 4.34028 63.3298 4.25595 62.9951 4.25595C62.69 4.25595 62.4488 4.3254 62.2717 4.46429C62.0945 4.59325 61.9665 4.82639 61.8878 5.16369C61.809 5.49107 61.7697 5.95734 61.7697 6.5625V7.14286H64.1615Z" fill="#00DDFF"/>
<path d="M68.6725 3.57143H69.7651V4.74702C70.021 4.32044 70.3212 4.00297 70.6657 3.79464C71.0201 3.58631 71.3744 3.48214 71.7287 3.48214C71.7976 3.48214 71.8616 3.4871 71.9207 3.49702V4.65774C71.7435 4.59821 71.5663 4.56845 71.3892 4.56845C70.71 4.56845 70.1686 4.90079 69.7651 5.56548V12.1726H68.6725V3.57143Z" fill="#00DDFF"/>
<path d="M76.3344 12.3065C75.8226 12.3065 75.4092 12.123 75.0942 11.756C74.7792 11.3889 74.6218 10.9325 74.6218 10.3869C74.6218 9.82143 74.73 9.35516 74.9466 8.9881C75.173 8.62103 75.5175 8.29365 75.9801 8.00595C76.4427 7.71825 77.1366 7.36607 78.0619 6.9494V6.33928C78.0619 5.80357 78.0274 5.3869 77.9585 5.08929C77.8995 4.79167 77.7912 4.57837 77.6337 4.4494C77.4861 4.32044 77.2744 4.25595 76.9988 4.25595C76.2016 4.25595 75.8029 4.74702 75.8029 5.72917V6.02678L74.7399 6.0119C74.7497 5.12897 74.9367 4.47917 75.3009 4.0625C75.6651 3.64583 76.2508 3.4375 77.0579 3.4375C77.806 3.4375 78.3375 3.66567 78.6524 4.12202C78.9773 4.57837 79.1397 5.29762 79.1397 6.27976V10.4613C79.1397 10.7391 79.1446 11.0565 79.1544 11.4137C79.1741 11.7708 79.1938 12.0238 79.2135 12.1726H78.2538L78.0914 10.9821C77.9634 11.3591 77.742 11.6766 77.427 11.9345C77.1219 12.1825 76.7577 12.3065 76.3344 12.3065ZM76.674 11.3839C76.9693 11.3839 77.2351 11.2847 77.4713 11.0863C77.7174 10.878 77.9142 10.6349 78.0619 10.3571V7.67857C77.3925 8.03571 76.9053 8.31349 76.6002 8.5119C76.3049 8.71032 76.0785 8.93353 75.921 9.18155C75.7734 9.41964 75.6996 9.73214 75.6996 10.119C75.6996 10.5456 75.7881 10.8631 75.9653 11.0714C76.1523 11.2798 76.3886 11.3839 76.674 11.3839Z" fill="#00DDFF"/>
<path d="M84.6107 12.2768C84.03 12.2768 83.6264 12.1181 83.4 11.8006C83.1835 11.4732 83.0752 11.002 83.0752 10.3869V4.28571H82.0269V3.57143H83.0752V0.907737H84.153V3.57143H85.5704V4.28571H84.153V10.2827C84.153 10.7192 84.2022 11.0218 84.3007 11.1905C84.3991 11.3492 84.6009 11.4286 84.906 11.4286C85.093 11.4286 85.2997 11.4038 85.5261 11.3542V12.1875C85.221 12.247 84.9158 12.2768 84.6107 12.2768Z" fill="#00DDFF"/>
<path d="M88.7635 0.907737H89.8414V2.38095H88.7635V0.907737ZM88.7635 3.57143H89.8414V12.1726H88.7635V3.57143Z" fill="#00DDFF"/>
<path d="M95.6896 12.3065C94.8431 12.3065 94.2525 12.0437 93.9178 11.5179C93.5832 10.9821 93.4158 10.1637 93.4158 9.0625V6.68155C93.4158 5.58036 93.5832 4.76686 93.9178 4.24107C94.2525 3.70536 94.8431 3.4375 95.6896 3.4375C96.5459 3.4375 97.1414 3.70536 97.4761 4.24107C97.8107 4.76686 97.9781 5.58036 97.9781 6.68155V9.0625C97.9781 10.1637 97.8107 10.9821 97.4761 11.5179C97.1414 12.0437 96.5459 12.3065 95.6896 12.3065ZM95.6896 11.4881C96.0439 11.4881 96.3048 11.3938 96.4721 11.2054C96.6493 11.0169 96.7625 10.7639 96.8117 10.4464C96.8609 10.119 96.8855 9.67758 96.8855 9.12202V6.62202C96.8855 6.06647 96.8609 5.62996 96.8117 5.3125C96.7625 4.98512 96.6493 4.72718 96.4721 4.53869C96.3048 4.3502 96.0439 4.25595 95.6896 4.25595C95.3352 4.25595 95.0744 4.3502 94.9071 4.53869C94.7397 4.72718 94.6315 4.98512 94.5822 5.3125C94.533 5.62996 94.5084 6.06647 94.5084 6.62202V9.12202C94.5084 9.67758 94.533 10.119 94.5822 10.4464C94.6315 10.7639 94.7397 11.0169 94.9071 11.2054C95.0744 11.3938 95.3352 11.4881 95.6896 11.4881Z" fill="#00DDFF"/>
<path d="M101.395 3.57143H102.473V4.46429C102.758 4.14683 103.073 3.89881 103.417 3.72024C103.772 3.53175 104.141 3.4375 104.525 3.4375C104.948 3.4375 105.273 3.59623 105.499 3.91369C105.726 4.23115 105.839 4.68254 105.839 5.26786V12.1726H104.761V5.50595C104.761 5.06944 104.692 4.75694 104.554 4.56845C104.426 4.37996 104.225 4.28571 103.949 4.28571C103.713 4.28571 103.467 4.36012 103.211 4.50893C102.955 4.64782 102.709 4.84127 102.473 5.08929V12.1726H101.395V3.57143Z" fill="#00DDFF"/>
<path d="M117.344 12.3214C116.222 12.3214 115.425 11.999 114.953 11.3542C114.49 10.7093 114.259 9.79663 114.259 8.61607V3.61607C114.259 2.44544 114.495 1.55258 114.967 0.937499C115.44 0.3125 116.232 0 117.344 0C118.437 0 119.22 0.3125 119.692 0.937499C120.165 1.5625 120.401 2.45536 120.401 3.61607V8.63095C120.401 9.81151 120.169 10.7242 119.707 11.369C119.244 12.004 118.457 12.3214 117.344 12.3214ZM117.344 11.4137C118.073 11.4137 118.575 11.2004 118.85 10.7738C119.126 10.3373 119.264 9.70238 119.264 8.86905V3.40774C119.264 2.5744 119.126 1.9494 118.85 1.53274C118.585 1.11607 118.083 0.907737 117.344 0.907737C116.596 0.907737 116.085 1.11607 115.809 1.53274C115.533 1.93948 115.396 2.56448 115.396 3.40774V8.86905C115.396 9.7123 115.533 10.3472 115.809 10.7738C116.085 11.2004 116.596 11.4137 117.344 11.4137Z" fill="#00DDFF"/>
<path d="M124.039 3.57143H125.131V4.74702C125.387 4.32044 125.687 4.00297 126.032 3.79464C126.386 3.58631 126.74 3.48214 127.095 3.48214C127.164 3.48214 127.228 3.4871 127.287 3.49702V4.65774C127.11 4.59821 126.932 4.56845 126.755 4.56845C126.076 4.56845 125.535 4.90079 125.131 5.56548V12.1726H124.039V3.57143Z" fill="#00DDFF"/>
<path d="M132.394 15C131.518 15 130.839 14.871 130.357 14.6131C129.884 14.3552 129.648 13.9633 129.648 13.4375C129.648 13.0407 129.781 12.6786 130.047 12.3512C130.322 12.0238 130.657 11.7609 131.051 11.5625C130.421 11.3938 130.106 11.0813 130.106 10.625C130.106 10.3472 130.185 10.0942 130.342 9.86607C130.509 9.62798 130.77 9.36012 131.125 9.0625C130.751 8.78472 130.475 8.43254 130.298 8.00595C130.131 7.56944 130.047 7.04861 130.047 6.44345C130.047 5.57044 130.249 4.85119 130.652 4.28571C131.056 3.72024 131.651 3.4375 132.439 3.4375C133.305 3.4375 133.915 3.79464 134.27 4.50893C134.358 4.3502 134.511 4.17659 134.727 3.98809C134.954 3.78968 135.185 3.64087 135.421 3.54167L135.643 3.46726L135.938 4.22619C135.702 4.26587 135.436 4.36508 135.141 4.52381C134.855 4.68254 134.653 4.83135 134.535 4.97024C134.604 5.15873 134.663 5.40675 134.712 5.71428C134.771 6.0119 134.801 6.26488 134.801 6.47321C134.801 7.39583 134.614 8.12996 134.24 8.6756C133.866 9.21131 133.27 9.47917 132.453 9.47917C132.306 9.47917 132.148 9.46924 131.981 9.4494C131.824 9.41964 131.691 9.38492 131.582 9.34524C131.199 9.73214 131.007 10.0595 131.007 10.3274C131.007 10.4663 131.061 10.5754 131.169 10.6548C131.287 10.7242 131.469 10.7738 131.715 10.8036L133.074 11.0119C133.782 11.121 134.314 11.3393 134.668 11.6667C135.032 11.9841 135.214 12.4306 135.214 13.006C135.214 13.6706 134.959 14.1667 134.447 14.494C133.945 14.8313 133.261 15 132.394 15ZM132.453 8.69047C133.015 8.69047 133.389 8.48214 133.576 8.06548C133.763 7.64881 133.856 7.10813 133.856 6.44345C133.856 4.95536 133.389 4.21131 132.453 4.21131C131.912 4.21131 131.538 4.42956 131.331 4.86607C131.125 5.30258 131.021 5.82837 131.021 6.44345C131.021 7.94147 131.499 8.69047 132.453 8.69047ZM132.439 14.122C133.039 14.122 133.507 14.0327 133.841 13.8542C134.186 13.6756 134.358 13.3978 134.358 13.0208C134.358 12.7034 134.245 12.4554 134.019 12.2768C133.802 12.0982 133.379 11.9593 132.749 11.8601L131.656 11.7113C131.331 11.9494 131.066 12.1776 130.859 12.3958C130.662 12.624 130.564 12.8819 130.564 13.1696C130.564 13.497 130.716 13.7351 131.021 13.8839C131.326 14.0427 131.799 14.122 132.439 14.122Z" fill="#00DDFF"/>
<path d="M139.978 12.3065C139.467 12.3065 139.053 12.123 138.738 11.756C138.423 11.3889 138.266 10.9325 138.266 10.3869C138.266 9.82143 138.374 9.35516 138.591 8.9881C138.817 8.62103 139.161 8.29365 139.624 8.00595C140.087 7.71825 140.781 7.36607 141.706 6.9494V6.33928C141.706 5.80357 141.671 5.3869 141.602 5.08929C141.543 4.79167 141.435 4.57837 141.278 4.4494C141.13 4.32044 140.918 4.25595 140.643 4.25595C139.846 4.25595 139.447 4.74702 139.447 5.72917V6.02678L138.384 6.0119C138.394 5.12897 138.581 4.47917 138.945 4.0625C139.309 3.64583 139.895 3.4375 140.702 3.4375C141.45 3.4375 141.981 3.66567 142.296 4.12202C142.621 4.57837 142.784 5.29762 142.784 6.27976V10.4613C142.784 10.7391 142.789 11.0565 142.798 11.4137C142.818 11.7708 142.838 12.0238 142.857 12.1726H141.898L141.735 10.9821C141.607 11.3591 141.386 11.6766 141.071 11.9345C140.766 12.1825 140.402 12.3065 139.978 12.3065ZM140.318 11.3839C140.613 11.3839 140.879 11.2847 141.115 11.0863C141.361 10.878 141.558 10.6349 141.706 10.3571V7.67857C141.036 8.03571 140.549 8.31349 140.244 8.5119C139.949 8.71032 139.722 8.93353 139.565 9.18155C139.417 9.41964 139.344 9.73214 139.344 10.119C139.344 10.5456 139.432 10.8631 139.609 11.0714C139.796 11.2798 140.033 11.3839 140.318 11.3839Z" fill="#00DDFF"/>
<path d="M146.29 3.57143H147.367V4.46429C147.653 4.14683 147.968 3.89881 148.312 3.72024C148.667 3.53175 149.036 3.4375 149.42 3.4375C149.843 3.4375 150.168 3.59623 150.394 3.91369C150.62 4.23115 150.734 4.68254 150.734 5.26786V12.1726H149.656V5.50595C149.656 5.06944 149.587 4.75694 149.449 4.56845C149.321 4.37996 149.119 4.28571 148.844 4.28571C148.608 4.28571 148.362 4.36012 148.106 4.50893C147.85 4.64782 147.604 4.84127 147.367 5.08929V12.1726H146.29V3.57143Z" fill="#00DDFF"/>
<path d="M154.368 0.907737H155.446V2.38095H154.368V0.907737ZM154.368 3.57143H155.446V12.1726H154.368V3.57143Z" fill="#00DDFF"/>
<path d="M158.829 11.4137L161.737 4.40476H159.139V3.57143H162.874V4.22619L159.98 11.3393H162.83V12.1726H158.829V11.4137Z" fill="#00DDFF"/>
<path d="M167.496 12.3065C166.984 12.3065 166.57 12.123 166.255 11.756C165.94 11.3889 165.783 10.9325 165.783 10.3869C165.783 9.82143 165.891 9.35516 166.108 8.9881C166.334 8.62103 166.679 8.29365 167.141 8.00595C167.604 7.71825 168.298 7.36607 169.223 6.9494V6.33928C169.223 5.80357 169.189 5.3869 169.12 5.08929C169.061 4.79167 168.952 4.57837 168.795 4.4494C168.647 4.32044 168.436 4.25595 168.16 4.25595C167.363 4.25595 166.964 4.74702 166.964 5.72917V6.02678L165.901 6.0119C165.911 5.12897 166.098 4.47917 166.462 4.0625C166.826 3.64583 167.412 3.4375 168.219 3.4375C168.967 3.4375 169.499 3.66567 169.814 4.12202C170.138 4.57837 170.301 5.29762 170.301 6.27976V10.4613C170.301 10.7391 170.306 11.0565 170.316 11.4137C170.335 11.7708 170.355 12.0238 170.375 12.1726H169.415L169.253 10.9821C169.125 11.3591 168.903 11.6766 168.588 11.9345C168.283 12.1825 167.919 12.3065 167.496 12.3065ZM167.835 11.3839C168.13 11.3839 168.396 11.2847 168.632 11.0863C168.879 10.878 169.075 10.6349 169.223 10.3571V7.67857C168.554 8.03571 168.066 8.31349 167.761 8.5119C167.466 8.71032 167.24 8.93353 167.082 9.18155C166.935 9.41964 166.861 9.73214 166.861 10.119C166.861 10.5456 166.949 10.8631 167.126 11.0714C167.314 11.2798 167.55 11.3839 167.835 11.3839Z" fill="#00DDFF"/>
<path d="M175.772 12.2768C175.191 12.2768 174.788 12.1181 174.561 11.8006C174.345 11.4732 174.236 11.002 174.236 10.3869V4.28571H173.188V3.57143H174.236V0.907737H175.314V3.57143H176.732V4.28571H175.314V10.2827C175.314 10.7192 175.363 11.0218 175.462 11.1905C175.56 11.3492 175.762 11.4286 176.067 11.4286C176.254 11.4286 176.461 11.4038 176.687 11.3542V12.1875C176.382 12.247 176.077 12.2768 175.772 12.2768Z" fill="#00DDFF"/>
<path d="M179.925 0.907737H181.003V2.38095H179.925V0.907737ZM179.925 3.57143H181.003V12.1726H179.925V3.57143Z" fill="#00DDFF"/>
<path d="M186.851 12.3065C186.004 12.3065 185.414 12.0437 185.079 11.5179C184.744 10.9821 184.577 10.1637 184.577 9.0625V6.68155C184.577 5.58036 184.744 4.76686 185.079 4.24107C185.414 3.70536 186.004 3.4375 186.851 3.4375C187.707 3.4375 188.303 3.70536 188.637 4.24107C188.972 4.76686 189.139 5.58036 189.139 6.68155V9.0625C189.139 10.1637 188.972 10.9821 188.637 11.5179C188.303 12.0437 187.707 12.3065 186.851 12.3065ZM186.851 11.4881C187.205 11.4881 187.466 11.3938 187.633 11.2054C187.81 11.0169 187.924 10.7639 187.973 10.4464C188.022 10.119 188.047 9.67758 188.047 9.12202V6.62202C188.047 6.06647 188.022 5.62996 187.973 5.3125C187.924 4.98512 187.81 4.72718 187.633 4.53869C187.466 4.3502 187.205 4.25595 186.851 4.25595C186.496 4.25595 186.236 4.3502 186.068 4.53869C185.901 4.72718 185.793 4.98512 185.743 5.3125C185.694 5.62996 185.67 6.06647 185.67 6.62202V9.12202C185.67 9.67758 185.694 10.119 185.743 10.4464C185.793 10.7639 185.901 11.0169 186.068 11.2054C186.236 11.3938 186.496 11.4881 186.851 11.4881Z" fill="#00DDFF"/>
<path d="M192.556 3.57143H193.634V4.46429C193.919 4.14683 194.234 3.89881 194.579 3.72024C194.933 3.53175 195.302 3.4375 195.686 3.4375C196.109 3.4375 196.434 3.59623 196.66 3.91369C196.887 4.23115 197 4.68254 197 5.26786V12.1726H195.922V5.50595C195.922 5.06944 195.853 4.75694 195.715 4.56845C195.588 4.37996 195.386 4.28571 195.11 4.28571C194.874 4.28571 194.628 4.36012 194.372 4.50893C194.116 4.64782 193.87 4.84127 193.634 5.08929V12.1726H192.556V3.57143Z" fill="#00DDFF"/>
</svg>
